<svg xmlns="http://www.w3.org/2000/svg" width="1124" height="1073" viewBox="0 0 1124 1073" version="1.1"><path d="M 541.498 185.250 L 465.500 261.500 541.750 185.502 C 583.688 143.704, 618 109.391, 618 109.252 C 618 109.114, 617.886 109, 617.748 109 C 617.609 109, 583.296 143.313, 541.498 185.250 M 638.339 261.159 L 576.181 323.317 563.340 321.651 C 545.345 319.315, 518.904 318.519, 505 319.894 C 472.077 323.149, 453.081 327.767, 415.500 341.648 C 404.791 345.604, 378.284 360.228, 364.500 369.785 C 355.714 375.877, 333 393.846, 333 394.705 C 333 395.002, 333.788 394.627, 334.750 393.872 C 336.334 392.630, 336.370 392.665, 335.137 394.239 C 334.387 395.195, 333.450 395.778, 333.055 395.534 C 331.788 394.751, 167.810 559.913, 159.343 570.500 C 118.455 621.627, 97.041 682.958, 97.009 749.030 C 96.987 794.245, 107 836.226, 127.769 878 C 136.905 896.374, 145.844 910.306, 158.570 926 C 168.856 938.685, 174.564 945.253, 173.430 943.095 C 172.939 942.162, 173.083 941.934, 173.862 942.415 C 174.506 942.813, 174.822 943.480, 174.564 943.897 C 173.871 945.018, 185.479 956.188, 186.390 955.277 C 186.817 954.850, 187.017 954.950, 186.834 955.500 C 186.489 956.535, 195.918 965.758, 196.716 965.167 C 196.964 964.983, 197.467 965.168, 197.833 965.577 C 198.200 965.986, 197.825 965.960, 197 965.519 C 194.379 964.120, 197.738 967.055, 207.500 974.695 C 240.596 1000.597, 284.305 1020.548, 326.348 1028.941 C 360.781 1035.815, 403.441 1035.817, 437.937 1028.946 C 473.587 1021.845, 509.908 1007.017, 539 987.687 C 563.086 971.684, 570.310 964.971, 653.663 881.145 C 697.753 836.806, 733.645 800.235, 733.424 799.877 C 733.203 799.519, 733.805 798.613, 734.761 797.863 C 736.355 796.614, 736.386 796.667, 735.139 798.500 C 732.804 801.932, 739.837 793.932, 747.885 784 C 762.059 766.508, 774.097 747.550, 782.428 729.600 C 785.476 723.034, 787.448 719.993, 788.971 719.509 C 790.170 719.129, 790.906 718.573, 790.607 718.273 C 790.307 717.974, 788.950 718.458, 787.590 719.349 C 781.200 723.536, 752.682 733.510, 735.728 737.487 C 709.902 743.546, 701.608 744.437, 672 744.331 C 649.991 744.253, 642.166 743.851, 632.811 742.317 L 621.123 740.402 553.311 808 C 479.064 882.014, 476.719 884.077, 454.500 894.955 C 435.598 904.208, 419.185 908.644, 394.902 911.060 C 375.558 912.985, 350.042 909.881, 329.207 903.069 C 312.808 897.708, 290.417 885.294, 279 875.235 C 276.525 873.054, 274.200 871.322, 273.833 871.385 C 273.467 871.448, 272.792 871.090, 272.333 870.590 C 271.843 870.054, 272.117 869.986, 273 870.424 C 273.825 870.833, 272.969 869.849, 271.098 868.236 C 269.227 866.623, 266.377 863.773, 264.764 861.902 C 263.151 860.031, 262.164 859.132, 262.570 859.905 C 263.061 860.838, 262.917 861.066, 262.138 860.585 C 261.494 860.187, 261.186 859.508, 261.453 859.076 C 261.720 858.644, 260.790 857.213, 259.386 855.895 C 255.396 852.152, 244.730 837.317, 239.689 828.500 C 224.421 801.797, 216.603 764.215, 219.937 733.548 C 223.455 701.193, 232.651 676.364, 249.636 653.368 C 252.533 649.446, 254.588 645.921, 254.202 645.535 C 253.816 645.149, 253.950 644.946, 254.500 645.084 C 255.050 645.221, 285.649 614.996, 322.497 577.917 C 379.309 520.748, 382.198 517.721, 341.497 558 L 293.500 605.500 340.951 557.795 C 377.541 521.009, 388.700 510.336, 389.701 511.167 C 390.664 511.966, 391 511.873, 391 510.809 C 391 508.173, 423.957 476.790, 433.500 470.339 C 453.073 457.107, 476.275 448.018, 501 443.896 C 512.235 442.023, 542.454 442.300, 554 444.381 C 580.348 449.130, 599.908 457.066, 620 471.159 C 625.775 475.210, 630.800 478.518, 631.167 478.512 C 631.533 478.505, 632.208 478.910, 632.667 479.410 C 633.159 479.948, 632.887 479.999, 632 479.534 C 631.175 479.101, 632.956 480.942, 635.957 483.624 C 638.958 486.306, 641.804 488.376, 642.281 488.225 C 642.758 488.074, 642.904 488.346, 642.605 488.830 C 642.306 489.314, 643.217 490.787, 644.630 492.105 C 651.662 498.664, 664.537 517.098, 670.783 529.551 C 678.831 545.594, 683.117 558.788, 686.576 578.174 C 688.759 590.404, 688.973 619.730, 686.890 621.170 C 685.844 621.893, 685.995 622.009, 687.500 621.640 C 688.600 621.370, 692.875 620.620, 697 619.975 C 712.150 617.604, 734.384 610.440, 747.827 603.599 C 763.362 595.694, 775.462 586.263, 793.837 567.742 L 807.174 554.299 805.039 544.400 C 797.762 510.646, 782.300 474.265, 762.949 445.363 C 752.560 429.847, 734.608 408.142, 732.686 408.775 C 732.227 408.926, 732.089 408.665, 732.379 408.195 C 732.948 407.275, 722.940 396.917, 721.833 397.281 C 721.467 397.401, 720.792 397.090, 720.333 396.590 C 719.842 396.052, 720.115 395.995, 721 396.451 C 721.825 396.875, 720.268 395.259, 717.539 392.861 C 714.811 390.462, 712.223 388.613, 711.789 388.750 C 711.355 388.888, 711.112 388.578, 711.250 388.062 C 711.387 387.546, 706.694 383.384, 700.819 378.812 C 668.760 353.863, 625.238 333.709, 585.675 325.489 L 576.850 323.656 639.172 261.328 C 673.449 227.048, 701.270 199, 700.996 199 C 700.722 199, 672.527 226.971, 638.339 261.159 M 1099.328 299.500 C 1099.333 303.350, 1099.513 304.802, 1099.730 302.728 C 1099.946 300.653, 1099.943 297.503, 1099.722 295.728 C 1099.501 293.952, 1099.324 295.650, 1099.328 299.500 M 1099.328 332.500 C 1099.333 336.350, 1099.513 337.802, 1099.730 335.728 C 1099.946 333.653, 1099.943 330.503, 1099.722 328.728 C 1099.501 326.952, 1099.324 328.650, 1099.328 332.500 M 508.349 459 C 508.349 463.675, 508.522 465.587, 508.732 463.250 C 508.943 460.913, 508.943 457.087, 508.732 454.750 C 508.522 452.413, 508.349 454.325, 508.349 459 M 276.984 621.750 L 265.500 633.500 277.250 622.016 C 283.712 615.700, 289 610.413, 289 610.266 C 289 609.546, 287.650 610.836, 276.984 621.750 M 467.500 660 C 470.766 663.300, 473.662 666, 473.937 666 C 474.212 666, 471.766 663.300, 468.500 660 C 465.234 656.700, 462.338 654, 462.063 654 C 461.788 654, 464.234 656.700, 467.500 660 M 615.494 918.250 L 581.500 952.500 615.750 918.506 C 647.581 886.912, 650.450 884, 649.744 884 C 649.604 884, 634.191 899.413, 615.494 918.250" stroke="none" fill="#9b9b9b" fill-rule="evenodd"/><path d="M 541.498 185.250 L 465.500 261.500 541.750 185.502 C 583.688 143.704, 618 109.391, 618 109.252 C 618 109.114, 617.886 109, 617.748 109 C 617.609 109, 583.296 143.313, 541.498 185.250 M 638.339 261.159 L 576.181 323.317 563.340 321.651 C 545.345 319.315, 518.904 318.519, 505 319.894 C 472.077 323.149, 453.081 327.767, 415.500 341.648 C 404.791 345.604, 378.284 360.228, 364.500 369.785 C 355.714 375.877, 333 393.846, 333 394.705 C 333 395.002, 333.788 394.627, 334.750 393.872 C 336.334 392.630, 336.370 392.665, 335.137 394.239 C 334.387 395.195, 333.450 395.778, 333.055 395.534 C 331.788 394.751, 167.810 559.913, 159.343 570.500 C 118.455 621.627, 97.041 682.958, 97.009 749.030 C 96.987 794.245, 107 836.226, 127.769 878 C 136.905 896.374, 145.844 910.306, 158.570 926 C 168.856 938.685, 174.564 945.253, 173.430 943.095 C 172.939 942.162, 173.083 941.934, 173.862 942.415 C 174.506 942.813, 174.822 943.480, 174.564 943.897 C 173.871 945.018, 185.479 956.188, 186.390 955.277 C 186.817 954.850, 187.017 954.950, 186.834 955.500 C 186.489 956.535, 195.918 965.758, 196.716 965.167 C 196.964 964.983, 197.467 965.168, 197.833 965.577 C 198.200 965.986, 197.825 965.960, 197 965.519 C 194.379 964.120, 197.738 967.055, 207.500 974.695 C 240.596 1000.597, 284.305 1020.548, 326.348 1028.941 C 360.781 1035.815, 403.441 1035.817, 437.937 1028.946 C 473.587 1021.845, 509.908 1007.017, 539 987.687 C 563.086 971.684, 570.310 964.971, 653.663 881.145 C 697.753 836.806, 733.645 800.235, 733.424 799.877 C 733.203 799.519, 733.805 798.613, 734.761 797.863 C 736.355 796.614, 736.386 796.667, 735.139 798.500 C 732.804 801.932, 739.837 793.932, 747.885 784 C 762.059 766.508, 774.097 747.550, 782.428 729.600 C 785.476 723.034, 787.448 719.993, 788.971 719.509 C 790.170 719.129, 790.906 718.573, 790.607 718.273 C 790.307 717.974, 788.950 718.458, 787.590 719.349 C 781.200 723.536, 752.682 733.510, 735.728 737.487 C 709.902 743.546, 701.608 744.437, 672 744.331 C 649.991 744.253, 642.166 743.851, 632.811 742.317 L 621.123 740.402 553.311 808 C 479.064 882.014, 476.719 884.077, 454.500 894.955 C 435.598 904.208, 419.185 908.644, 394.902 911.060 C 375.558 912.985, 350.042 909.881, 329.207 903.069 C 312.808 897.708, 290.417 885.294, 279 875.235 C 276.525 873.054, 274.200 871.322, 273.833 871.385 C 273.467 871.448, 272.792 871.090, 272.333 870.590 C 271.843 870.054, 272.117 869.986, 273 870.424 C 273.825 870.833, 272.969 869.849, 271.098 868.236 C 269.227 866.623, 266.377 863.773, 264.764 861.902 C 263.151 860.031, 262.164 859.132, 262.570 859.905 C 263.061 860.838, 262.917 861.066, 262.138 860.585 C 261.494 860.187, 261.186 859.508, 261.453 859.076 C 261.720 858.644, 260.790 857.213, 259.386 855.895 C 255.396 852.152, 244.730 837.317, 239.689 828.500 C 224.421 801.797, 216.603 764.215, 219.937 733.548 C 223.455 701.193, 232.651 676.364, 249.636 653.368 C 252.533 649.446, 254.588 645.921, 254.202 645.535 C 253.816 645.149, 253.950 644.946, 254.500 645.084 C 255.050 645.221, 285.649 614.996, 322.497 577.917 C 379.309 520.748, 382.198 517.721, 341.497 558 L 293.500 605.500 340.951 557.795 C 377.541 521.009, 388.700 510.336, 389.701 511.167 C 390.664 511.966, 391 511.873, 391 510.809 C 391 508.173, 423.957 476.790, 433.500 470.339 C 453.073 457.107, 476.275 448.018, 501 443.896 C 512.235 442.023, 542.454 442.300, 554 444.381 C 580.348 449.130, 599.908 457.066, 620 471.159 C 625.775 475.210, 630.800 478.518, 631.167 478.512 C 631.533 478.505, 632.208 478.910, 632.667 479.410 C 633.159 479.948, 632.887 479.999, 632 479.534 C 631.175 479.101, 632.956 480.942, 635.957 483.624 C 638.958 486.306, 641.804 488.376, 642.281 488.225 C 642.758 488.074, 642.904 488.346, 642.605 488.830 C 642.306 489.314, 643.217 490.787, 644.630 492.105 C 651.662 498.664, 664.537 517.098, 670.783 529.551 C 678.831 545.594, 683.117 558.788, 686.576 578.174 C 688.759 590.404, 688.973 619.730, 686.890 621.170 C 685.844 621.893, 685.995 622.009, 687.500 621.640 C 688.600 621.370, 692.875 620.620, 697 619.975 C 712.150 617.604, 734.384 610.440, 747.827 603.599 C 763.362 595.694, 775.462 586.263, 793.837 567.742 L 807.174 554.299 805.039 544.400 C 797.762 510.646, 782.300 474.265, 762.949 445.363 C 752.560 429.847, 734.608 408.142, 732.686 408.775 C 732.227 408.926, 732.089 408.665, 732.379 408.195 C 732.948 407.275, 722.940 396.917, 721.833 397.281 C 721.467 397.401, 720.792 397.090, 720.333 396.590 C 719.842 396.052, 720.115 395.995, 721 396.451 C 721.825 396.875, 720.268 395.259, 717.539 392.861 C 714.811 390.462, 712.223 388.613, 711.789 388.750 C 711.355 388.888, 711.112 388.578, 711.250 388.062 C 711.387 387.546, 706.694 383.384, 700.819 378.812 C 668.760 353.863, 625.238 333.709, 585.675 325.489 L 576.850 323.656 639.172 261.328 C 673.449 227.048, 701.270 199, 700.996 199 C 700.722 199, 672.527 226.971, 638.339 261.159 M 1099.328 299.500 C 1099.333 303.350, 1099.513 304.802, 1099.730 302.728 C 1099.946 300.653, 1099.943 297.503, 1099.722 295.728 C 1099.501 293.952, 1099.324 295.650, 1099.328 299.500 M 1099.328 332.500 C 1099.333 336.350, 1099.513 337.802, 1099.730 335.728 C 1099.946 333.653, 1099.943 330.503, 1099.722 328.728 C 1099.501 326.952, 1099.324 328.650, 1099.328 332.500 M 508.349 459 C 508.349 463.675, 508.522 465.587, 508.732 463.250 C 508.943 460.913, 508.943 457.087, 508.732 454.750 C 508.522 452.413, 508.349 454.325, 508.349 459 M 276.984 621.750 L 265.500 633.500 277.250 622.016 C 283.712 615.700, 289 610.413, 289 610.266 C 289 609.546, 287.650 610.836, 276.984 621.750 M 467.500 660 C 470.766 663.300, 473.662 666, 473.937 666 C 474.212 666, 471.766 663.300, 468.500 660 C 465.234 656.700, 462.338 654, 462.063 654 C 461.788 654, 464.234 656.700, 467.500 660 M 615.494 918.250 L 581.500 952.500 615.750 918.506 C 647.581 886.912, 650.450 884, 649.744 884 C 649.604 884, 634.191 899.413, 615.494 918.250" stroke="none" fill="#9b9b9b" fill-rule="evenodd"/><path d="M 541.498 185.250 L 465.500 261.500 541.750 185.502 C 583.688 143.704, 618 109.391, 618 109.252 C 618 109.114, 617.886 109, 617.748 109 C 617.609 109, 583.296 143.313, 541.498 185.250 M 638.339 261.159 L 576.181 323.317 563.340 321.651 C 545.345 319.315, 518.904 318.519, 505 319.894 C 472.077 323.149, 453.081 327.767, 415.500 341.648 C 404.791 345.604, 378.284 360.228, 364.500 369.785 C 355.714 375.877, 333 393.846, 333 394.705 C 333 395.002, 333.788 394.627, 334.750 393.872 C 336.334 392.630, 336.370 392.665, 335.137 394.239 C 334.387 395.195, 333.450 395.778, 333.055 395.534 C 331.788 394.751, 167.810 559.913, 159.343 570.500 C 118.455 621.627, 97.041 682.958, 97.009 749.030 C 96.987 794.245, 107 836.226, 127.769 878 C 136.905 896.374, 145.844 910.306, 158.570 926 C 168.856 938.685, 174.564 945.253, 173.430 943.095 C 172.939 942.162, 173.083 941.934, 173.862 942.415 C 174.506 942.813, 174.822 943.480, 174.564 943.897 C 173.871 945.018, 185.479 956.188, 186.390 955.277 C 186.817 954.850, 187.017 954.950, 186.834 955.500 C 186.489 956.535, 195.918 965.758, 196.716 965.167 C 196.964 964.983, 197.467 965.168, 197.833 965.577 C 198.200 965.986, 197.825 965.960, 197 965.519 C 194.379 964.120, 197.738 967.055, 207.500 974.695 C 240.596 1000.597, 284.305 1020.548, 326.348 1028.941 C 360.781 1035.815, 403.441 1035.817, 437.937 1028.946 C 473.587 1021.845, 509.908 1007.017, 539 987.687 C 563.086 971.684, 570.310 964.971, 653.663 881.145 C 697.753 836.806, 733.645 800.235, 733.424 799.877 C 733.203 799.519, 733.805 798.613, 734.761 797.863 C 736.355 796.614, 736.386 796.667, 735.139 798.500 C 732.804 801.932, 739.837 793.932, 747.885 784 C 762.059 766.508, 774.097 747.550, 782.428 729.600 C 785.476 723.034, 787.448 719.993, 788.971 719.509 C 790.170 719.129, 790.906 718.573, 790.607 718.273 C 790.307 717.974, 788.950 718.458, 787.590 719.349 C 781.200 723.536, 752.682 733.510, 735.728 737.487 C 709.902 743.546, 701.608 744.437, 672 744.331 C 649.991 744.253, 642.166 743.851, 632.811 742.317 L 621.123 740.402 553.311 808 C 479.064 882.014, 476.719 884.077, 454.500 894.955 C 435.598 904.208, 419.185 908.644, 394.902 911.060 C 375.558 912.985, 350.042 909.881, 329.207 903.069 C 312.808 897.708, 290.417 885.294, 279 875.235 C 276.525 873.054, 274.200 871.322, 273.833 871.385 C 273.467 871.448, 272.792 871.090, 272.333 870.590 C 271.843 870.054, 272.117 869.986, 273 870.424 C 273.825 870.833, 272.969 869.849, 271.098 868.236 C 269.227 866.623, 266.377 863.773, 264.764 861.902 C 263.151 860.031, 262.164 859.132, 262.570 859.905 C 263.061 860.838, 262.917 861.066, 262.138 860.585 C 261.494 860.187, 261.186 859.508, 261.453 859.076 C 261.720 858.644, 260.790 857.213, 259.386 855.895 C 255.396 852.152, 244.730 837.317, 239.689 828.500 C 224.421 801.797, 216.603 764.215, 219.937 733.548 C 223.455 701.193, 232.651 676.364, 249.636 653.368 C 252.533 649.446, 254.588 645.921, 254.202 645.535 C 253.816 645.149, 253.950 644.946, 254.500 645.084 C 255.050 645.221, 285.649 614.996, 322.497 577.917 C 379.309 520.748, 382.198 517.721, 341.497 558 L 293.500 605.500 340.951 557.795 C 377.541 521.009, 388.700 510.336, 389.701 511.167 C 390.664 511.966, 391 511.873, 391 510.809 C 391 508.173, 423.957 476.790, 433.500 470.339 C 453.073 457.107, 476.275 448.018, 501 443.896 C 512.235 442.023, 542.454 442.300, 554 444.381 C 580.348 449.130, 599.908 457.066, 620 471.159 C 625.775 475.210, 630.800 478.518, 631.167 478.512 C 631.533 478.505, 632.208 478.910, 632.667 479.410 C 633.159 479.948, 632.887 479.999, 632 479.534 C 631.175 479.101, 632.956 480.942, 635.957 483.624 C 638.958 486.306, 641.804 488.376, 642.281 488.225 C 642.758 488.074, 642.904 488.346, 642.605 488.830 C 642.306 489.314, 643.217 490.787, 644.630 492.105 C 651.662 498.664, 664.537 517.098, 670.783 529.551 C 678.831 545.594, 683.117 558.788, 686.576 578.174 C 688.759 590.404, 688.973 619.730, 686.890 621.170 C 685.844 621.893, 685.995 622.009, 687.500 621.640 C 688.600 621.370, 692.875 620.620, 697 619.975 C 712.150 617.604, 734.384 610.440, 747.827 603.599 C 763.362 595.694, 775.462 586.263, 793.837 567.742 L 807.174 554.299 805.039 544.400 C 797.762 510.646, 782.300 474.265, 762.949 445.363 C 752.560 429.847, 734.608 408.142, 732.686 408.775 C 732.227 408.926, 732.089 408.665, 732.379 408.195 C 732.948 407.275, 722.940 396.917, 721.833 397.281 C 721.467 397.401, 720.792 397.090, 720.333 396.590 C 719.842 396.052, 720.115 395.995, 721 396.451 C 721.825 396.875, 720.268 395.259, 717.539 392.861 C 714.811 390.462, 712.223 388.613, 711.789 388.750 C 711.355 388.888, 711.112 388.578, 711.250 388.062 C 711.387 387.546, 706.694 383.384, 700.819 378.812 C 668.760 353.863, 625.238 333.709, 585.675 325.489 L 576.850 323.656 639.172 261.328 C 673.449 227.048, 701.270 199, 700.996 199 C 700.722 199, 672.527 226.971, 638.339 261.159 M 1099.328 299.500 C 1099.333 303.350, 1099.513 304.802, 1099.730 302.728 C 1099.946 300.653, 1099.943 297.503, 1099.722 295.728 C 1099.501 293.952, 1099.324 295.650, 1099.328 299.500 M 1099.328 332.500 C 1099.333 336.350, 1099.513 337.802, 1099.730 335.728 C 1099.946 333.653, 1099.943 330.503, 1099.722 328.728 C 1099.501 326.952, 1099.324 328.650, 1099.328 332.500 M 508.349 459 C 508.349 463.675, 508.522 465.587, 508.732 463.250 C 508.943 460.913, 508.943 457.087, 508.732 454.750 C 508.522 452.413, 508.349 454.325, 508.349 459 M 276.984 621.750 L 265.500 633.500 277.250 622.016 C 283.712 615.700, 289 610.413, 289 610.266 C 289 609.546, 287.650 610.836, 276.984 621.750 M 467.500 660 C 470.766 663.300, 473.662 666, 473.937 666 C 474.212 666, 471.766 663.300, 468.500 660 C 465.234 656.700, 462.338 654, 462.063 654 C 461.788 654, 464.234 656.700, 467.500 660 M 615.494 918.250 L 581.500 952.500 615.750 918.506 C 647.581 886.912, 650.450 884, 649.744 884 C 649.604 884, 634.191 899.413, 615.494 918.250" stroke="none" fill="#9b9b9b" fill-rule="evenodd"/><path d="M 794 31.663 C 770.709 33.946, 755.587 36.593, 737.915 41.481 C 702.037 51.404, 665.691 69.972, 636.524 93.278 C 622.990 104.092, 459.794 267.317, 449.835 280 C 436.713 296.711, 425.071 314.971, 415.871 333.274 L 410.957 343.049 413.729 342.384 C 415.253 342.018, 417.661 341.136, 419.080 340.422 C 424.401 337.746, 445.975 330.784, 459 327.539 C 493.353 318.980, 527.776 317.035, 563.291 321.644 L 576.082 323.304 642.291 257.312 C 710.056 189.768, 717.176 183.291, 734.500 173.424 C 749.216 165.043, 765.788 159.036, 784.500 155.299 C 797.320 152.739, 833.803 152.756, 846 155.327 C 873.241 161.071, 893.349 169.818, 912 184.036 C 922.946 192.381, 940.937 211.025, 948.991 222.369 C 961.909 240.564, 970.959 262.305, 975.687 286.500 C 978.346 300.104, 978.102 333.821, 975.245 347.648 C 970.433 370.940, 961.659 391.844, 949.397 409.226 C 945.123 415.284, 921.729 439.417, 862.030 499.350 C 817.188 544.368, 777.566 583.567, 773.980 586.460 C 745.928 609.085, 707.571 622.256, 670 622.165 C 635.208 622.080, 604.161 612.470, 576.500 593.222 C 556.222 579.112, 534.111 553.584, 525.337 534.154 C 512.984 506.800, 508.821 488.270, 508.619 459.750 C 508.545 449.328, 508.122 443.001, 507.500 443.001 C 501.116 443.010, 478.638 448.586, 466.500 453.172 C 443.880 461.718, 427.599 472.828, 406.094 494.390 L 390.687 509.837 392.941 521.168 C 399.090 552.077, 415.104 589.731, 434.335 618.500 C 453.443 647.086, 484.094 677.728, 512.500 696.643 C 548.597 720.680, 587.067 735.077, 635.500 742.677 C 652.844 745.399, 695.267 745.142, 712.228 742.212 C 746.669 736.264, 769.830 728.646, 800 713.342 C 818.607 703.904, 834.159 693.925, 850.998 680.623 C 868.466 666.823, 1023.346 512.013, 1037.205 494.500 C 1062.684 462.302, 1079.447 429.217, 1089.896 390.500 C 1096.828 364.814, 1099.359 344.886, 1099.359 316 C 1099.359 294.253, 1098.156 280.086, 1094.859 263 C 1083.608 204.700, 1058.067 156.316, 1016.542 114.641 C 995.961 93.984, 973.900 77.353, 951 65.230 C 916.566 47.001, 882.011 36.458, 843.778 32.517 C 830.744 31.174, 803.723 30.710, 794 31.663 M 340.996 557.750 L 293.500 605.500 341.250 558.004 C 385.633 513.857, 389.449 510, 388.746 510 C 388.606 510, 367.119 531.487, 340.996 557.750 M 276.984 621.750 L 265.500 633.500 277.250 622.016 C 283.712 615.700, 289 610.413, 289 610.266 C 289 609.546, 287.650 610.836, 276.984 621.750 M 615.494 918.250 L 581.500 952.500 615.750 918.506 C 647.581 886.912, 650.450 884, 649.744 884 C 649.604 884, 634.191 899.413, 615.494 918.250" stroke="none" fill="#bebebe" fill-rule="evenodd"/><path d="M 541.498 185.250 L 465.500 261.500 541.750 185.502 C 583.688 143.704, 618 109.391, 618 109.252 C 618 109.114, 617.886 109, 617.748 109 C 617.609 109, 583.296 143.313, 541.498 185.250 M 638.339 261.159 L 576.181 323.317 563.340 321.651 C 545.345 319.315, 518.904 318.519, 505 319.894 C 472.077 323.149, 453.081 327.767, 415.500 341.648 C 404.791 345.604, 378.284 360.228, 364.500 369.785 C 355.714 375.877, 333 393.846, 333 394.705 C 333 395.002, 333.788 394.627, 334.750 393.872 C 336.334 392.630, 336.370 392.665, 335.137 394.239 C 334.387 395.195, 333.450 395.778, 333.055 395.534 C 331.788 394.751, 167.810 559.913, 159.343 570.500 C 118.455 621.627, 97.041 682.958, 97.009 749.030 C 96.987 794.245, 107 836.226, 127.769 878 C 136.905 896.374, 145.844 910.306, 158.570 926 C 168.856 938.685, 174.564 945.253, 173.430 943.095 C 172.939 942.162, 173.083 941.934, 173.862 942.415 C 174.506 942.813, 174.822 943.480, 174.564 943.897 C 173.871 945.018, 185.479 956.188, 186.390 955.277 C 186.817 954.850, 187.017 954.950, 186.834 955.500 C 186.489 956.535, 195.918 965.758, 196.716 965.167 C 196.964 964.983, 197.467 965.168, 197.833 965.577 C 198.200 965.986, 197.825 965.960, 197 965.519 C 194.379 964.120, 197.738 967.055, 207.500 974.695 C 240.596 1000.597, 284.305 1020.548, 326.348 1028.941 C 360.781 1035.815, 403.441 1035.817, 437.937 1028.946 C 473.587 1021.845, 509.908 1007.017, 539 987.687 C 563.086 971.684, 570.310 964.971, 653.663 881.145 C 697.753 836.806, 733.645 800.235, 733.424 799.877 C 733.203 799.519, 733.805 798.613, 734.761 797.863 C 736.355 796.614, 736.386 796.667, 735.139 798.500 C 732.804 801.932, 739.837 793.932, 747.885 784 C 762.059 766.508, 774.097 747.550, 782.428 729.600 C 785.476 723.034, 787.448 719.993, 788.971 719.509 C 790.170 719.129, 790.906 718.573, 790.607 718.273 C 790.307 717.974, 788.950 718.458, 787.590 719.349 C 781.200 723.536, 752.682 733.510, 735.728 737.487 C 709.902 743.546, 701.608 744.437, 672 744.331 C 649.991 744.253, 642.166 743.851, 632.811 742.317 L 621.123 740.402 553.311 808 C 479.064 882.014, 476.719 884.077, 454.500 894.955 C 435.598 904.208, 419.185 908.644, 394.902 911.060 C 375.558 912.985, 350.042 909.881, 329.207 903.069 C 312.808 897.708, 290.417 885.294, 279 875.235 C 276.525 873.054, 274.200 871.322, 273.833 871.385 C 273.467 871.448, 272.792 871.090, 272.333 870.590 C 271.843 870.054, 272.117 869.986, 273 870.424 C 273.825 870.833, 272.969 869.849, 271.098 868.236 C 269.227 866.623, 266.377 863.773, 264.764 861.902 C 263.151 860.031, 262.164 859.132, 262.570 859.905 C 263.061 860.838, 262.917 861.066, 262.138 860.585 C 261.494 860.187, 261.186 859.508, 261.453 859.076 C 261.720 858.644, 260.790 857.213, 259.386 855.895 C 255.396 852.152, 244.730 837.317, 239.689 828.500 C 224.421 801.797, 216.603 764.215, 219.937 733.548 C 223.455 701.193, 232.651 676.364, 249.636 653.368 C 252.533 649.446, 254.588 645.921, 254.202 645.535 C 253.816 645.149, 253.950 644.946, 254.500 645.084 C 255.050 645.221, 285.649 614.996, 322.497 577.917 C 379.309 520.748, 382.198 517.721, 341.497 558 L 293.500 605.500 340.951 557.795 C 377.541 521.009, 388.700 510.336, 389.701 511.167 C 390.664 511.966, 391 511.873, 391 510.809 C 391 508.173, 423.957 476.790, 433.500 470.339 C 453.073 457.107, 476.275 448.018, 501 443.896 C 512.235 442.023, 542.454 442.300, 554 444.381 C 580.348 449.130, 599.908 457.066, 620 471.159 C 625.775 475.210, 630.800 478.518, 631.167 478.512 C 631.533 478.505, 632.208 478.910, 632.667 479.410 C 633.159 479.948, 632.887 479.999, 632 479.534 C 631.175 479.101, 632.956 480.942, 635.957 483.624 C 638.958 486.306, 641.804 488.376, 642.281 488.225 C 642.758 488.074, 642.904 488.346, 642.605 488.830 C 642.306 489.314, 643.217 490.787, 644.630 492.105 C 651.662 498.664, 664.537 517.098, 670.783 529.551 C 678.831 545.594, 683.117 558.788, 686.576 578.174 C 688.759 590.404, 688.973 619.730, 686.890 621.170 C 685.844 621.893, 685.995 622.009, 687.500 621.640 C 688.600 621.370, 692.875 620.620, 697 619.975 C 712.150 617.604, 734.384 610.440, 747.827 603.599 C 763.362 595.694, 775.462 586.263, 793.837 567.742 L 807.174 554.299 805.039 544.400 C 797.762 510.646, 782.300 474.265, 762.949 445.363 C 752.560 429.847, 734.608 408.142, 732.686 408.775 C 732.227 408.926, 732.089 408.665, 732.379 408.195 C 732.948 407.275, 722.940 396.917, 721.833 397.281 C 721.467 397.401, 720.792 397.090, 720.333 396.590 C 719.842 396.052, 720.115 395.995, 721 396.451 C 721.825 396.875, 720.268 395.259, 717.539 392.861 C 714.811 390.462, 712.223 388.613, 711.789 388.750 C 711.355 388.888, 711.112 388.578, 711.250 388.062 C 711.387 387.546, 706.694 383.384, 700.819 378.812 C 668.760 353.863, 625.238 333.709, 585.675 325.489 L 576.850 323.656 639.172 261.328 C 673.449 227.048, 701.270 199, 700.996 199 C 700.722 199, 672.527 226.971, 638.339 261.159 M 1099.328 299.500 C 1099.333 303.350, 1099.513 304.802, 1099.730 302.728 C 1099.946 300.653, 1099.943 297.503, 1099.722 295.728 C 1099.501 293.952, 1099.324 295.650, 1099.328 299.500 M 1099.328 332.500 C 1099.333 336.350, 1099.513 337.802, 1099.730 335.728 C 1099.946 333.653, 1099.943 330.503, 1099.722 328.728 C 1099.501 326.952, 1099.324 328.650, 1099.328 332.500 M 508.349 459 C 508.349 463.675, 508.522 465.587, 508.732 463.250 C 508.943 460.913, 508.943 457.087, 508.732 454.750 C 508.522 452.413, 508.349 454.325, 508.349 459 M 276.984 621.750 L 265.500 633.500 277.250 622.016 C 283.712 615.700, 289 610.413, 289 610.266 C 289 609.546, 287.650 610.836, 276.984 621.750 M 467.500 660 C 470.766 663.300, 473.662 666, 473.937 666 C 474.212 666, 471.766 663.300, 468.500 660 C 465.234 656.700, 462.338 654, 462.063 654 C 461.788 654, 464.234 656.700, 467.500 660 M 615.494 918.250 L 581.500 952.500 615.750 918.506 C 647.581 886.912, 650.450 884, 649.744 884 C 649.604 884, 634.191 899.413, 615.494 918.250" stroke="none" fill="#9b9b9b" fill-rule="evenodd"/><path d="M 0 536.501 L 0 1073.002 562.250 1072.751 L 1124.500 1072.500 1124.751 536.250 L 1125.002 0 562.501 0 L 0 0 0 536.501 M 0.496 537 C 0.496 832.075, 0.610 952.787, 0.750 805.250 C 0.890 657.712, 0.890 416.287, 0.750 268.750 C 0.610 121.212, 0.496 241.925, 0.496 537 M 804.500 30.723 C 753.822 32.134, 699.352 49.404, 657.500 77.331 C 634.982 92.356, 628.318 98.561, 541.918 184.939 C 456.506 270.331, 449.506 277.821, 435.245 299.089 C 427.926 310.004, 421.563 320.948, 415.386 333.244 L 409.989 343.989 399.244 349.386 C 378.429 359.842, 361.010 371.248, 342.500 386.542 C 328.658 397.979, 169.364 557.970, 159.343 570.500 C 118.455 621.627, 97.041 682.958, 97.009 749.030 C 96.987 794.245, 107 836.226, 127.769 878 C 141.394 905.404, 158.511 928.833, 181.476 951.510 C 217.047 986.637, 257.316 1010.094, 305.848 1023.958 C 346.251 1035.500, 395.664 1037.366, 437.937 1028.946 C 491.952 1018.187, 537.839 994.232, 580.221 954.668 C 602.427 933.937, 739.574 794.482, 747.571 784.500 C 762.315 766.097, 775.055 745.986, 782.590 729.223 L 786.311 720.947 801.171 713.347 C 818.594 704.436, 836.128 693.195, 850.337 681.825 C 864.021 670.876, 1028.021 506.895, 1038.684 493.500 C 1090.073 428.946, 1110.931 342.693, 1094.908 261 C 1085.917 215.159, 1067.292 174.397, 1039.162 139 C 1021.731 117.064, 993.707 91.339, 970.796 76.240 C 957.470 67.459, 929.229 53.403, 914 47.973 C 878.968 35.483, 842.107 29.676, 804.500 30.723 M 796.500 154.060 C 774.960 156.979, 760.488 161.211, 743.248 169.634 C 720.442 180.777, 716.836 183.940, 643.212 257.379 L 576.923 323.500 585.212 325.319 C 666.018 343.051, 733.863 392.678, 773.991 463.410 C 787.968 488.045, 799.697 518.919, 805.538 546.447 L 807.224 554.393 873.901 487.447 C 946.146 414.910, 949.590 411.018, 960.488 389.569 C 973.449 364.061, 979.867 330.818, 977.140 303.323 C 974.727 279.002, 970.156 262.153, 960.909 243.500 C 953.016 227.578, 943.865 214.933, 930.500 201.479 C 904.650 175.456, 878.637 161.645, 844 155.554 C 832.669 153.561, 806.302 152.732, 796.500 154.060 M 513.750 442.664 L 509 443.110 509 458.176 C 509 501.670, 522.233 537.731, 549.383 568.225 C 559.880 580.015, 565.864 585.295, 578.500 593.917 C 598.087 607.282, 618.838 615.573, 642.949 619.669 C 653.410 621.445, 684.931 622.522, 686.890 621.169 C 688.973 619.730, 688.759 590.404, 686.576 578.174 C 679.836 540.407, 663.922 510.062, 638.194 485.917 C 614.524 463.703, 587.087 450.143, 554.500 444.553 C 545.187 442.955, 522.073 441.884, 513.750 442.664 M 322.357 578.266 C 255.734 645.046, 249.297 652.051, 240.163 667.710 C 216.195 708.806, 212.674 764.371, 231.117 810.500 C 248.027 852.797, 286.503 889.107, 329.207 903.069 C 350.042 909.881, 375.558 912.985, 394.902 911.060 C 419.185 908.644, 435.598 904.208, 454.500 894.955 C 476.669 884.102, 479.122 881.945, 552.750 808.576 C 589.737 771.718, 620 741.274, 620 740.921 C 620 740.569, 614.938 739.273, 608.750 738.042 C 579.414 732.206, 541.686 716.464, 514.895 698.881 C 485.194 679.388, 453.468 648.126, 434.334 619.500 C 414.216 589.401, 398.775 553.062, 392.481 521 C 391.563 516.325, 390.502 512.170, 390.122 511.766 C 389.743 511.363, 359.249 541.288, 322.357 578.266" stroke="none" fill="transparent" fill-rule="evenodd"/><path d="M 0 536.501 L 0 1073.002 562.250 1072.751 L 1124.500 1072.500 1124.751 536.250 L 1125.002 0 562.501 0 L 0 0 0 536.501 M 0.496 537 C 0.496 832.075, 0.610 952.787, 0.750 805.250 C 0.890 657.712, 0.890 416.287, 0.750 268.750 C 0.610 121.212, 0.496 241.925, 0.496 537 M 804.500 30.723 C 753.822 32.134, 699.352 49.404, 657.500 77.331 C 634.982 92.356, 628.318 98.561, 541.918 184.939 C 456.506 270.331, 449.506 277.821, 435.245 299.089 C 427.926 310.004, 421.563 320.948, 415.386 333.244 L 409.989 343.989 399.244 349.386 C 378.429 359.842, 361.010 371.248, 342.500 386.542 C 328.658 397.979, 169.364 557.970, 159.343 570.500 C 118.455 621.627, 97.041 682.958, 97.009 749.030 C 96.987 794.245, 107 836.226, 127.769 878 C 141.394 905.404, 158.511 928.833, 181.476 951.510 C 217.047 986.637, 257.316 1010.094, 305.848 1023.958 C 346.251 1035.500, 395.664 1037.366, 437.937 1028.946 C 491.952 1018.187, 537.839 994.232, 580.221 954.668 C 602.427 933.937, 739.574 794.482, 747.571 784.500 C 762.315 766.097, 775.055 745.986, 782.590 729.223 L 786.311 720.947 801.171 713.347 C 818.594 704.436, 836.128 693.195, 850.337 681.825 C 864.021 670.876, 1028.021 506.895, 1038.684 493.500 C 1090.073 428.946, 1110.931 342.693, 1094.908 261 C 1085.917 215.159, 1067.292 174.397, 1039.162 139 C 1021.731 117.064, 993.707 91.339, 970.796 76.240 C 957.470 67.459, 929.229 53.403, 914 47.973 C 878.968 35.483, 842.107 29.676, 804.500 30.723 M 796.500 154.060 C 774.960 156.979, 760.488 161.211, 743.248 169.634 C 720.442 180.777, 716.836 183.940, 643.212 257.379 L 576.923 323.500 585.212 325.319 C 666.018 343.051, 733.863 392.678, 773.991 463.410 C 787.968 488.045, 799.697 518.919, 805.538 546.447 L 807.224 554.393 873.901 487.447 C 946.146 414.910, 949.590 411.018, 960.488 389.569 C 973.449 364.061, 979.867 330.818, 977.140 303.323 C 974.727 279.002, 970.156 262.153, 960.909 243.500 C 953.016 227.578, 943.865 214.933, 930.500 201.479 C 904.650 175.456, 878.637 161.645, 844 155.554 C 832.669 153.561, 806.302 152.732, 796.500 154.060 M 513.750 442.664 L 509 443.110 509 458.176 C 509 501.670, 522.233 537.731, 549.383 568.225 C 559.880 580.015, 565.864 585.295, 578.500 593.917 C 598.087 607.282, 618.838 615.573, 642.949 619.669 C 653.410 621.445, 684.931 622.522, 686.890 621.169 C 688.973 619.730, 688.759 590.404, 686.576 578.174 C 679.836 540.407, 663.922 510.062, 638.194 485.917 C 614.524 463.703, 587.087 450.143, 554.500 444.553 C 545.187 442.955, 522.073 441.884, 513.750 442.664 M 322.357 578.266 C 255.734 645.046, 249.297 652.051, 240.163 667.710 C 216.195 708.806, 212.674 764.371, 231.117 810.500 C 248.027 852.797, 286.503 889.107, 329.207 903.069 C 350.042 909.881, 375.558 912.985, 394.902 911.060 C 419.185 908.644, 435.598 904.208, 454.500 894.955 C 476.669 884.102, 479.122 881.945, 552.750 808.576 C 589.737 771.718, 620 741.274, 620 740.921 C 620 740.569, 614.938 739.273, 608.750 738.042 C 579.414 732.206, 541.686 716.464, 514.895 698.881 C 485.194 679.388, 453.468 648.126, 434.334 619.500 C 414.216 589.401, 398.775 553.062, 392.481 521 C 391.563 516.325, 390.502 512.170, 390.122 511.766 C 389.743 511.363, 359.249 541.288, 322.357 578.266" stroke="none" fill="transparent" fill-rule="evenodd"/><path d="M 541.498 185.250 L 465.500 261.500 541.750 185.502 C 583.688 143.704, 618 109.391, 618 109.252 C 618 109.114, 617.886 109, 617.748 109 C 617.609 109, 583.296 143.313, 541.498 185.250 M 638.339 261.159 L 576.181 323.317 563.340 321.651 C 545.345 319.315, 518.904 318.519, 505 319.894 C 472.077 323.149, 453.081 327.767, 415.500 341.648 C 404.791 345.604, 378.284 360.228, 364.500 369.785 C 355.714 375.877, 333 393.846, 333 394.705 C 333 395.002, 333.788 394.627, 334.750 393.872 C 336.334 392.630, 336.370 392.665, 335.137 394.239 C 334.387 395.195, 333.450 395.778, 333.055 395.534 C 331.788 394.751, 167.810 559.913, 159.343 570.500 C 118.455 621.627, 97.041 682.958, 97.009 749.030 C 96.987 794.245, 107 836.226, 127.769 878 C 136.905 896.374, 145.844 910.306, 158.570 926 C 168.856 938.685, 174.564 945.253, 173.430 943.095 C 172.939 942.162, 173.083 941.934, 173.862 942.415 C 174.506 942.813, 174.822 943.480, 174.564 943.897 C 173.871 945.018, 185.479 956.188, 186.390 955.277 C 186.817 954.850, 187.017 954.950, 186.834 955.500 C 186.489 956.535, 195.918 965.758, 196.716 965.167 C 196.964 964.983, 197.467 965.168, 197.833 965.577 C 198.200 965.986, 197.825 965.960, 197 965.519 C 194.379 964.120, 197.738 967.055, 207.500 974.695 C 240.596 1000.597, 284.305 1020.548, 326.348 1028.941 C 360.781 1035.815, 403.441 1035.817, 437.937 1028.946 C 473.587 1021.845, 509.908 1007.017, 539 987.687 C 563.086 971.684, 570.310 964.971, 653.663 881.145 C 697.753 836.806, 733.645 800.235, 733.424 799.877 C 733.203 799.519, 733.805 798.613, 734.761 797.863 C 736.355 796.614, 736.386 796.667, 735.139 798.500 C 732.804 801.932, 739.837 793.932, 747.885 784 C 762.059 766.508, 774.097 747.550, 782.428 729.600 C 785.476 723.034, 787.448 719.993, 788.971 719.509 C 790.170 719.129, 790.906 718.573, 790.607 718.273 C 790.307 717.974, 788.950 718.458, 787.590 719.349 C 781.200 723.536, 752.682 733.510, 735.728 737.487 C 709.902 743.546, 701.608 744.437, 672 744.331 C 649.991 744.253, 642.166 743.851, 632.811 742.317 L 621.123 740.402 553.311 808 C 479.064 882.014, 476.719 884.077, 454.500 894.955 C 435.598 904.208, 419.185 908.644, 394.902 911.060 C 375.558 912.985, 350.042 909.881, 329.207 903.069 C 312.808 897.708, 290.417 885.294, 279 875.235 C 276.525 873.054, 274.200 871.322, 273.833 871.385 C 273.467 871.448, 272.792 871.090, 272.333 870.590 C 271.843 870.054, 272.117 869.986, 273 870.424 C 273.825 870.833, 272.969 869.849, 271.098 868.236 C 269.227 866.623, 266.377 863.773, 264.764 861.902 C 263.151 860.031, 262.164 859.132, 262.570 859.905 C 263.061 860.838, 262.917 861.066, 262.138 860.585 C 261.494 860.187, 261.186 859.508, 261.453 859.076 C 261.720 858.644, 260.790 857.213, 259.386 855.895 C 255.396 852.152, 244.730 837.317, 239.689 828.500 C 224.421 801.797, 216.603 764.215, 219.937 733.548 C 223.455 701.193, 232.651 676.364, 249.636 653.368 C 252.533 649.446, 254.588 645.921, 254.202 645.535 C 253.816 645.149, 253.950 644.946, 254.500 645.084 C 255.050 645.221, 285.649 614.996, 322.497 577.917 C 379.309 520.748, 382.198 517.721, 341.497 558 L 293.500 605.500 340.951 557.795 C 377.541 521.009, 388.700 510.336, 389.701 511.167 C 390.664 511.966, 391 511.873, 391 510.809 C 391 508.173, 423.957 476.790, 433.500 470.339 C 453.073 457.107, 476.275 448.018, 501 443.896 C 512.235 442.023, 542.454 442.300, 554 444.381 C 580.348 449.130, 599.908 457.066, 620 471.159 C 625.775 475.210, 630.800 478.518, 631.167 478.512 C 631.533 478.505, 632.208 478.910, 632.667 479.410 C 633.159 479.948, 632.887 479.999, 632 479.534 C 631.175 479.101, 632.956 480.942, 635.957 483.624 C 638.958 486.306, 641.804 488.376, 642.281 488.225 C 642.758 488.074, 642.904 488.346, 642.605 488.830 C 642.306 489.314, 643.217 490.787, 644.630 492.105 C 651.662 498.664, 664.537 517.098, 670.783 529.551 C 678.831 545.594, 683.117 558.788, 686.576 578.174 C 688.759 590.404, 688.973 619.730, 686.890 621.170 C 685.844 621.893, 685.995 622.009, 687.500 621.640 C 688.600 621.370, 692.875 620.620, 697 619.975 C 712.150 617.604, 734.384 610.440, 747.827 603.599 C 763.362 595.694, 775.462 586.263, 793.837 567.742 L 807.174 554.299 805.039 544.400 C 797.762 510.646, 782.300 474.265, 762.949 445.363 C 752.560 429.847, 734.608 408.142, 732.686 408.775 C 732.227 408.926, 732.089 408.665, 732.379 408.195 C 732.948 407.275, 722.940 396.917, 721.833 397.281 C 721.467 397.401, 720.792 397.090, 720.333 396.590 C 719.842 396.052, 720.115 395.995, 721 396.451 C 721.825 396.875, 720.268 395.259, 717.539 392.861 C 714.811 390.462, 712.223 388.613, 711.789 388.750 C 711.355 388.888, 711.112 388.578, 711.250 388.062 C 711.387 387.546, 706.694 383.384, 700.819 378.812 C 668.760 353.863, 625.238 333.709, 585.675 325.489 L 576.850 323.656 639.172 261.328 C 673.449 227.048, 701.270 199, 700.996 199 C 700.722 199, 672.527 226.971, 638.339 261.159 M 1099.328 299.500 C 1099.333 303.350, 1099.513 304.802, 1099.730 302.728 C 1099.946 300.653, 1099.943 297.503, 1099.722 295.728 C 1099.501 293.952, 1099.324 295.650, 1099.328 299.500 M 1099.328 332.500 C 1099.333 336.350, 1099.513 337.802, 1099.730 335.728 C 1099.946 333.653, 1099.943 330.503, 1099.722 328.728 C 1099.501 326.952, 1099.324 328.650, 1099.328 332.500 M 508.349 459 C 508.349 463.675, 508.522 465.587, 508.732 463.250 C 508.943 460.913, 508.943 457.087, 508.732 454.750 C 508.522 452.413, 508.349 454.325, 508.349 459 M 276.984 621.750 L 265.500 633.500 277.250 622.016 C 283.712 615.700, 289 610.413, 289 610.266 C 289 609.546, 287.650 610.836, 276.984 621.750 M 467.500 660 C 470.766 663.300, 473.662 666, 473.937 666 C 474.212 666, 471.766 663.300, 468.500 660 C 465.234 656.700, 462.338 654, 462.063 654 C 461.788 654, 464.234 656.700, 467.500 660 M 615.494 918.250 L 581.500 952.500 615.750 918.506 C 647.581 886.912, 650.450 884, 649.744 884 C 649.604 884, 634.191 899.413, 615.494 918.250" stroke="none" fill="#9b9b9b" fill-rule="evenodd"/><path d="M 794 31.663 C 770.709 33.946, 755.587 36.593, 737.915 41.481 C 702.037 51.404, 665.691 69.972, 636.524 93.278 C 622.990 104.092, 459.794 267.317, 449.835 280 C 436.713 296.711, 425.071 314.971, 415.871 333.274 L 410.957 343.049 413.729 342.384 C 415.253 342.018, 417.661 341.136, 419.080 340.422 C 424.401 337.746, 445.975 330.784, 459 327.539 C 493.353 318.980, 527.776 317.035, 563.291 321.644 L 576.082 323.304 642.291 257.312 C 710.056 189.768, 717.176 183.291, 734.500 173.424 C 749.216 165.043, 765.788 159.036, 784.500 155.299 C 797.320 152.739, 833.803 152.756, 846 155.327 C 873.241 161.071, 893.349 169.818, 912 184.036 C 922.946 192.381, 940.937 211.025, 948.991 222.369 C 961.909 240.564, 970.959 262.305, 975.687 286.500 C 978.346 300.104, 978.102 333.821, 975.245 347.648 C 970.433 370.940, 961.659 391.844, 949.397 409.226 C 945.123 415.284, 921.729 439.417, 862.030 499.350 C 817.188 544.368, 777.566 583.567, 773.980 586.460 C 745.928 609.085, 707.571 622.256, 670 622.165 C 635.208 622.080, 604.161 612.470, 576.500 593.222 C 556.222 579.112, 534.111 553.584, 525.337 534.154 C 512.984 506.800, 508.821 488.270, 508.619 459.750 C 508.545 449.328, 508.122 443.001, 507.500 443.001 C 501.116 443.010, 478.638 448.586, 466.500 453.172 C 443.880 461.718, 427.599 472.828, 406.094 494.390 L 390.687 509.837 392.941 521.168 C 399.090 552.077, 415.104 589.731, 434.335 618.500 C 453.443 647.086, 484.094 677.728, 512.500 696.643 C 548.597 720.680, 587.067 735.077, 635.500 742.677 C 652.844 745.399, 695.267 745.142, 712.228 742.212 C 746.669 736.264, 769.830 728.646, 800 713.342 C 818.607 703.904, 834.159 693.925, 850.998 680.623 C 868.466 666.823, 1023.346 512.013, 1037.205 494.500 C 1062.684 462.302, 1079.447 429.217, 1089.896 390.500 C 1096.828 364.814, 1099.359 344.886, 1099.359 316 C 1099.359 294.253, 1098.156 280.086, 1094.859 263 C 1083.608 204.700, 1058.067 156.316, 1016.542 114.641 C 995.961 93.984, 973.900 77.353, 951 65.230 C 916.566 47.001, 882.011 36.458, 843.778 32.517 C 830.744 31.174, 803.723 30.710, 794 31.663 M 340.996 557.750 L 293.500 605.500 341.250 558.004 C 385.633 513.857, 389.449 510, 388.746 510 C 388.606 510, 367.119 531.487, 340.996 557.750 M 276.984 621.750 L 265.500 633.500 277.250 622.016 C 283.712 615.700, 289 610.413, 289 610.266 C 289 609.546, 287.650 610.836, 276.984 621.750 M 615.494 918.250 L 581.500 952.500 615.750 918.506 C 647.581 886.912, 650.450 884, 649.744 884 C 649.604 884, 634.191 899.413, 615.494 918.250" stroke="none" fill="#bebebe" fill-rule="evenodd"/></svg>